<svg width="601" height="449" viewBox="0 0 601 449" fill="none" xmlns="http://www.w3.org/2000/svg">
    <path d="M601 394.012H0V394.312H601V394.012Z" fill="#EBEBEB"/>
    <path d="M535.203 407.773H474.021V408.074H535.203V407.773Z" fill="#EBEBEB"/>
    <path d="M119.803 404.217H63.0569V404.517H119.803V404.217Z" fill="#EBEBEB"/>
    <path d="M478.396 402.197H455.33V402.498H478.396V402.197Z" fill="#EBEBEB"/>
    <path d="M398.127 410.166H381.202V410.467H398.127V410.166Z" fill="#EBEBEB"/>
    <path d="M370.492 410.166H327.894V410.467H370.492V410.166Z" fill="#EBEBEB"/>
    <path d="M303.157 405.094H234.655V405.394H303.157V405.094Z" fill="#EBEBEB"/>
    <path d="M284.874 340.402H52.7799C50.9617 340.399 49.219 339.674 47.9345 338.388C46.6499 337.101 45.9285 335.357 45.9285 333.539V7.27988C45.9443 5.4721 46.6727 3.74357 47.9556 2.46974C49.2384 1.19591 50.972 0.479659 52.7799 0.476562H284.874C286.694 0.476563 288.44 1.19967 289.727 2.48681C291.014 3.77395 291.737 5.51969 291.737 7.33998V333.539C291.737 335.359 291.014 337.105 289.727 338.392C288.44 339.679 286.694 340.402 284.874 340.402ZM52.7799 0.716963C51.0414 0.720148 49.3751 1.413 48.147 2.64344C46.9188 3.87388 46.229 5.54137 46.229 7.27988V333.539C46.229 335.277 46.9188 336.945 48.147 338.175C49.3751 339.406 51.0414 340.098 52.7799 340.102H284.874C286.614 340.098 288.281 339.406 289.511 338.176C290.741 336.946 291.434 335.278 291.437 333.539V7.27988C291.434 5.54026 290.741 3.8728 289.511 2.64271C288.281 1.41261 286.614 0.720141 284.874 0.716963H52.7799Z" fill="#EBEBEB"/>
    <path d="M544.879 340.402H312.772C310.953 340.399 309.209 339.675 307.923 338.388C306.636 337.102 305.912 335.358 305.909 333.539V7.27988C305.928 5.47101 306.659 3.74249 307.944 2.46899C309.229 1.19549 310.963 0.479626 312.772 0.476562H544.879C546.684 0.482818 548.415 1.20047 549.695 2.47396C550.975 3.74745 551.702 5.47418 551.718 7.27988V333.539C551.718 335.355 550.998 337.097 549.716 338.383C548.434 339.67 546.695 340.396 544.879 340.402ZM312.772 0.716963C311.033 0.720141 309.365 1.41261 308.135 2.64271C306.905 3.8728 306.213 5.54026 306.209 7.27988V333.539C306.213 335.278 306.905 336.946 308.135 338.176C309.365 339.406 311.033 340.098 312.772 340.102H544.879C546.618 340.098 548.286 339.406 549.516 338.176C550.746 336.946 551.438 335.278 551.441 333.539V7.27988C551.438 5.54026 550.746 3.8728 549.516 2.64271C548.286 1.41261 546.618 0.720141 544.879 0.716963H312.772Z" fill="#EBEBEB"/>
    <path d="M86.7123 281.191H249.824L249.824 37.0652L86.7123 37.0652L86.7123 281.191Z" fill="#E6E6E6"/>
    <path d="M83.0941 281.191H246.206L246.206 37.0652L83.0941 37.0652L83.0941 281.191Z" fill="#F5F5F5"/>
    <path d="M239.691 273.883V44.373L89.5972 44.373V273.883H239.691Z" fill="white"/>
    <path d="M92.3376 273.883L92.3376 44.373H89.5971L89.5971 273.883H92.3376Z" fill="#E6E6E6"/>
    <path d="M85.7867 125.736L243.513 125.736V115.928L85.7867 115.928V125.736Z" fill="#F5F5F5"/>
    <path d="M75.9906 24.9609H256.916C257.181 24.9641 257.435 25.0719 257.622 25.2609C257.809 25.4499 257.913 25.7049 257.913 25.9706C257.913 26.2352 257.808 26.489 257.621 26.6761C257.434 26.8632 257.18 26.9683 256.916 26.9683H75.9906C75.726 26.9683 75.4722 26.8632 75.2851 26.6761C75.098 26.489 74.9929 26.2352 74.9929 25.9706C74.9929 25.7049 75.0976 25.4499 75.2844 25.2609C75.4711 25.0719 75.7249 24.9641 75.9906 24.9609Z" fill="#E6E6E6"/>
    <path d="M69.9805 25.9706C69.9899 26.9598 70.292 27.9241 70.8485 28.7421C71.405 29.56 72.1911 30.1949 73.1077 30.567C74.0244 30.939 75.0307 31.0314 75.9998 30.8326C76.9689 30.6338 77.8575 30.1527 78.5537 29.4498C79.2499 28.7469 79.7225 27.8538 79.9121 26.8828C80.1016 25.9118 79.9996 24.9065 79.6188 23.9934C79.2381 23.0803 78.5956 22.3003 77.7724 21.7517C76.9492 21.203 75.9821 20.9102 74.9928 20.9102C74.3305 20.9101 73.6748 21.0413 73.0635 21.2962C72.4522 21.5511 71.8975 21.9247 71.4314 22.3952C70.9654 22.8657 70.5972 23.424 70.3481 24.0377C70.0991 24.6514 69.9741 25.3083 69.9805 25.9706Z" fill="#E6E6E6"/>
    <path d="M248.465 31.572C248.824 31.572 249.167 31.4306 249.422 31.1785C249.676 30.9263 249.82 30.5839 249.824 30.2258V27.3169C249.82 26.9588 249.676 26.6164 249.422 26.3643C249.167 26.1121 248.824 25.9707 248.465 25.9707C248.108 25.9707 247.766 26.1125 247.513 26.365C247.261 26.6175 247.119 26.9599 247.119 27.3169V30.2258C247.119 30.5828 247.261 30.9253 247.513 31.1777C247.766 31.4302 248.108 31.572 248.465 31.572Z" fill="#E6E6E6"/>
    <path d="M91.0997 31.572C91.4578 31.572 91.8015 31.4306 92.0559 31.1785C92.3103 30.9263 92.4547 30.5839 92.4579 30.2258V27.3169C92.4547 26.9588 92.3103 26.6164 92.0559 26.3643C91.8015 26.1121 91.4578 25.9707 91.0997 25.9707C90.7426 25.9707 90.4002 26.1125 90.1477 26.365C89.8953 26.6175 89.7534 26.9599 89.7534 27.3169V30.2258C89.7534 30.5828 89.8953 30.9253 90.1477 31.1777C90.4002 31.4302 90.7426 31.572 91.0997 31.572Z" fill="#E6E6E6"/>
    <path opacity="0.5" d="M76.303 256.094H243.501L243.501 25.9588L76.303 25.9588L76.303 256.094Z" fill="#E0E0E0"/>
    <path d="M227.358 25.9706C227.368 26.9603 227.67 27.9251 228.227 28.7433C228.784 29.5615 229.571 30.1964 230.488 30.5681C231.406 30.9397 232.413 31.0315 233.382 30.8317C234.351 30.6319 235.24 30.1496 235.936 29.4455C236.631 28.7415 237.103 27.8472 237.291 26.8754C237.479 25.9037 237.376 24.898 236.993 23.9851C236.611 23.0722 235.966 22.2931 235.142 21.7458C234.317 21.1986 233.348 20.9078 232.359 20.9102C231.697 20.9101 231.042 21.0414 230.431 21.2965C229.82 21.5515 229.267 21.9252 228.801 22.3959C228.336 22.8666 227.969 23.425 227.722 24.0386C227.474 24.6522 227.35 25.3089 227.358 25.9706Z" fill="#E6E6E6"/>
    <path d="M224.341 389.336H256.531V317.949H224.341V389.336Z" fill="#F0F0F0"/>
    <path d="M91.5684 393.855H250.341V389.336H91.5684V393.855Z" fill="#F0F0F0"/>
    <path d="M224.329 317.949H85.3901V389.336H224.329V317.949Z" fill="#F5F5F5"/>
    <path d="M211.672 326.736H98.0471V350.151H211.672V326.736Z" fill="#F0F0F0"/>
    <path d="M211.672 357.135H98.0471V380.55H211.672V357.135Z" fill="#F0F0F0"/>
    <path d="M140.382 340.041H169.338C170.121 340.041 170.756 339.406 170.756 338.623V338.25C170.756 337.467 170.121 336.832 169.338 336.832H140.382C139.598 336.832 138.963 337.467 138.963 338.25V338.623C138.963 339.406 139.598 340.041 140.382 340.041Z" fill="#F5F5F5"/>
    <path d="M140.382 370.439H169.338C170.121 370.439 170.756 369.804 170.756 369.021V368.648C170.756 367.865 170.121 367.23 169.338 367.23H140.382C139.598 367.23 138.963 367.865 138.963 368.648V369.021C138.963 369.804 139.598 370.439 140.382 370.439Z" fill="#F5F5F5"/>
    <path d="M147.75 305.941C147.75 305.941 147.353 317.961 132.521 317.961C117.688 317.961 117.303 305.941 117.303 305.941H147.75Z" fill="#F0F0F0"/>
    <path d="M182.452 305.941C182.452 305.941 182.067 317.961 167.222 317.961C152.377 317.961 152.005 305.941 152.005 305.941H182.452Z" fill="#F0F0F0"/>
    <path d="M147.75 297.971C147.75 297.971 147.353 309.991 132.521 309.991C117.688 309.991 117.303 297.971 117.303 297.971H147.75Z" fill="#F0F0F0"/>
    <path d="M182.452 297.971C182.452 297.971 182.067 309.991 167.222 309.991C152.377 309.991 152.005 297.971 152.005 297.971H182.452Z" fill="#F0F0F0"/>
    <path d="M217.153 305.941C217.153 305.941 216.769 317.961 201.936 317.961C187.103 317.961 186.707 305.941 186.707 305.941H217.153Z" fill="#F0F0F0"/>
    <path d="M217.153 297.971C217.153 297.971 216.769 309.991 201.936 309.991C187.103 309.991 186.707 297.971 186.707 297.971H217.153Z" fill="#F0F0F0"/>
    <path d="M413.44 177.904H510.646V37.7751H413.44V177.904Z" fill="#E6E6E6"/>
    <path d="M386.455 177.904H499.671V37.7751H386.455V177.904Z" fill="#F5F5F5"/>
    <path d="M485.199 168.901V46.7773L400.927 46.7773V168.901H485.199Z" fill="white"/>
    <path d="M443.839 170.463V45.2148H442.3V170.463H443.839Z" fill="#F5F5F5"/>
    <path d="M509.263 386.68H533.556V227.403H509.263V386.68Z" fill="#F0F0F0"/>
    <path d="M326.812 393.988H527.149V386.668H326.812V393.988Z" fill="#F0F0F0"/>
    <path d="M509.263 227.391H320.405V386.668H509.263V227.391Z" fill="#F5F5F5"/>
    <path d="M496.138 284.953H333.531V322.84H496.138V284.953Z" fill="#F0F0F0"/>
    <path d="M496.138 334.561H333.531V372.448H496.138V334.561Z" fill="#F0F0F0"/>
    <path d="M367.944 287.562H461.736C463.097 287.562 464.2 286.459 464.2 285.098V284.834C464.2 283.473 463.097 282.37 461.736 282.37H367.944C366.583 282.37 365.48 283.473 365.48 284.834V285.098C365.48 286.459 366.583 287.562 367.944 287.562Z" fill="#F5F5F5"/>
    <path d="M367.944 337.156H461.736C463.097 337.156 464.2 336.053 464.2 334.692V334.428C464.2 333.067 463.097 331.964 461.736 331.964H367.944C366.583 331.964 365.48 333.067 365.48 334.428V334.692C365.48 336.053 366.583 337.156 367.944 337.156Z" fill="#F5F5F5"/>
    <path d="M496.138 235.359H333.531V273.246H496.138V235.359Z" fill="#F0F0F0"/>
    <path d="M367.944 237.967H461.736C463.097 237.967 464.2 236.864 464.2 235.503V235.238C464.2 233.877 463.097 232.774 461.736 232.774H367.944C366.583 232.774 365.48 233.877 365.48 235.238V235.503C365.48 236.864 366.583 237.967 367.944 237.967Z" fill="#F5F5F5"/>
    <path d="M355.323 118.417C359.037 118.417 362.599 116.941 365.225 114.315C367.851 111.689 369.327 108.127 369.327 104.413C369.327 100.7 367.851 97.1378 365.225 94.5116C362.599 91.8855 359.037 90.4102 355.323 90.4102H353.616V118.417H355.323Z" fill="#E0E0E0"/>
    <path d="M353.616 118.417C361.35 118.417 367.62 112.147 367.62 104.413C367.62 96.6796 361.35 90.4102 353.616 90.4102C345.883 90.4102 339.613 96.6796 339.613 104.413C339.613 112.147 345.883 118.417 353.616 118.417Z" fill="#F5F5F5"/>
    <path d="M352.186 107.057C344.718 107.048 337.558 104.076 332.278 98.7939C326.998 93.5119 324.03 86.351 324.023 78.8826V62.0546C324.023 61.3532 324.302 60.6806 324.798 60.1847C325.294 59.6888 325.966 59.4102 326.668 59.4102C327.369 59.4102 328.042 59.6888 328.537 60.1847C329.033 60.6806 329.312 61.3532 329.312 62.0546V78.8826C329.331 84.9337 331.743 90.7316 336.022 95.0105C340.301 99.2893 346.099 101.702 352.15 101.721C352.497 101.721 352.841 101.789 353.162 101.922C353.483 102.055 353.774 102.25 354.02 102.495C354.265 102.741 354.46 103.032 354.593 103.353C354.726 103.674 354.794 104.018 354.794 104.365C354.794 104.712 354.726 105.056 354.593 105.377C354.46 105.698 354.265 105.989 354.02 106.235C353.774 106.48 353.483 106.675 353.162 106.808C352.841 106.941 352.497 107.009 352.15 107.009L352.186 107.057Z" fill="#E0E0E0"/>
    <path d="M302.904 76.8754H350.455C351.198 76.8742 351.933 76.7136 352.608 76.4042C353.284 76.0949 353.886 75.6441 354.372 75.0824C354.859 74.5206 355.219 73.8609 355.429 73.1479C355.638 72.435 355.693 71.6853 355.588 70.9495L351.501 42.5463C351.03 39.2839 349.398 36.3008 346.906 34.1438C344.413 31.9869 341.227 30.8007 337.93 30.8027H315.453C312.157 30.8007 308.97 31.9869 306.478 34.1438C303.985 36.3008 302.354 39.2839 301.882 42.5463L297.784 70.9015C297.669 71.6401 297.716 72.3948 297.921 73.1137C298.125 73.8326 298.483 74.4987 298.97 75.0663C299.456 75.6338 300.06 76.0894 300.739 76.4016C301.418 76.7139 302.157 76.8755 302.904 76.8754Z" fill="#F5F5F5"/>
    <path d="M300.5 448.293C429.213 448.293 533.556 442.201 533.556 434.687C533.556 427.172 429.213 421.08 300.5 421.08C171.787 421.08 67.4443 427.172 67.4443 434.687C67.4443 442.201 171.787 448.293 300.5 448.293Z" fill="#F5F5F5"/>
    <path d="M353.16 415.408L344.061 412.559L348.244 390.719L357.343 393.58L353.16 415.408Z" fill="#FF8B7B"/>
    <path d="M435.797 424.95H426.253L418.825 402.857H428.357L435.797 424.95Z" fill="#FF8B7B"/>
    <path d="M424.979 423.846H436.615C436.803 423.844 436.986 423.908 437.133 424.027C437.28 424.145 437.381 424.31 437.42 424.495L439.307 432.969C439.353 433.175 439.351 433.389 439.301 433.595C439.252 433.801 439.157 433.992 439.022 434.156C438.888 434.319 438.718 434.45 438.526 434.538C438.334 434.626 438.124 434.669 437.913 434.664C434.163 434.604 431.434 434.387 426.722 434.387C423.825 434.387 415.087 434.688 411.096 434.688C407.106 434.688 406.577 430.721 408.211 430.373C415.556 428.762 421.097 426.55 423.453 424.435C423.871 424.057 424.415 423.847 424.979 423.846Z" fill="#263238"/>
    <path d="M344.457 411.561L354.398 414.674C354.577 414.733 354.731 414.85 354.836 415.007C354.941 415.164 354.99 415.352 354.975 415.54L354.23 424.194C354.213 424.403 354.149 424.606 354.042 424.787C353.936 424.967 353.79 425.121 353.615 425.237C353.44 425.353 353.241 425.428 353.033 425.455C352.825 425.483 352.614 425.462 352.415 425.396C348.809 424.194 343.736 422.379 339.193 420.973C333.928 419.314 328.867 417.823 322.689 415.876C318.951 414.674 319.083 410.611 320.766 410.756C328.374 411.429 334.661 413.448 342.005 411.585C342.803 411.342 343.655 411.334 344.457 411.561Z" fill="#263238"/>
    <path d="M400.014 138.707C398.415 140.955 396.684 143.359 395.049 145.727C393.415 148.094 391.792 150.535 390.181 152.939C387.008 157.747 383.943 162.615 381.226 167.519C380.517 168.721 379.94 169.923 379.279 171.209C378.618 172.495 378.077 173.613 377.548 174.815C377.019 176.017 376.515 177.219 376.058 178.421L375.781 179.142C375.762 179.202 375.733 179.259 375.697 179.31C375.697 179.31 375.697 179.31 375.697 178.782V178.529C375.697 178.409 375.697 178.301 375.697 178.169C375.677 177.97 375.64 177.773 375.589 177.58C375.589 177.423 375.505 177.267 375.457 177.123L375.385 176.894L375.24 176.558C375.134 176.318 375.014 176.086 374.88 175.861C374.679 175.534 374.445 175.228 374.183 174.947C373.484 174.177 372.598 173.601 371.61 173.276C371.144 173.12 370.659 173.023 370.168 172.988C369.944 172.97 369.719 172.97 369.495 172.988H369.014C368.52 173.044 368.034 173.165 367.572 173.349C367.325 173.447 367.084 173.559 366.851 173.685C366.713 173.761 366.581 173.845 366.454 173.937L366.213 174.13L366.057 174.262C365.963 174.336 365.878 174.42 365.805 174.514C365.721 174.659 365.913 174.514 366.069 174.322C366.79 173.541 367.728 172.399 368.569 171.293L371.214 167.831C373.017 165.511 374.82 163.144 376.743 160.86L383.066 164.225C382.188 167.182 381.142 170.007 380 172.844C379.399 174.25 378.798 175.668 378.137 177.075C377.434 178.604 376.631 180.086 375.733 181.51C375.394 182.048 375.012 182.559 374.591 183.037C374.387 183.265 374.171 183.482 373.942 183.686L373.678 183.902L373.317 184.167C373.152 184.286 372.979 184.394 372.8 184.491C372.528 184.644 372.247 184.78 371.959 184.9C371.453 185.094 370.924 185.224 370.384 185.284H369.868C369.651 185.284 369.399 185.284 369.158 185.284C368.647 185.251 368.141 185.15 367.656 184.984C367.12 184.811 366.61 184.564 366.141 184.251C365.697 183.969 365.293 183.63 364.939 183.241C364.661 182.943 364.415 182.617 364.206 182.267C364.058 182.024 363.925 181.771 363.809 181.51L363.653 181.137L363.569 180.885C363.509 180.717 363.461 180.536 363.413 180.368C363.365 180.2 363.317 179.875 363.281 179.635V179.13V178.745C363.272 178.199 363.304 177.653 363.377 177.111C363.377 176.75 363.473 176.45 363.521 176.185C363.617 175.644 363.713 175.2 363.821 174.755C364.214 173.126 364.699 171.52 365.276 169.947C365.817 168.396 366.478 166.918 367.043 165.427C367.608 163.937 368.329 162.506 369.026 161.124C371.744 155.577 374.766 150.184 378.077 144.969C379.712 142.397 381.383 139.849 383.138 137.361C384.893 134.872 386.611 132.408 388.559 129.908L400.014 138.707Z" fill="#FF8B7B"/>
    <path d="M405.074 132.155C406.925 141.074 386.972 163.407 386.972 163.407L369.723 150.185C373.758 142.905 378.561 136.079 384.051 129.823C392.213 120.964 402.971 122.359 405.074 132.155Z" fill="#407BFF"/>
    <path opacity="0.2" d="M390.65 138.369C385.842 140.124 383.306 151.796 380.541 158.515L386.924 163.395C391.693 157.986 396.056 152.233 399.978 146.182C397.682 141.11 396.143 136.374 390.65 138.369Z" fill="black"/>
    <path opacity="0.2" d="M348.244 390.73L346.092 401.981L355.191 404.83L357.355 393.579L348.244 390.73Z" fill="black"/>
    <path opacity="0.2" d="M428.369 402.871H418.825L422.659 414.254H432.203L428.369 402.871Z" fill="black"/>
    <path d="M447.697 131.711C444.037 141.73 441.128 152.007 438.995 162.458C437.468 169.742 436.326 176.726 435.389 183.073C433.321 197.929 432.684 209.348 431.915 213.123C424.523 211.921 396.684 207.641 381.515 205.261C379.219 150.631 394.737 123.91 394.737 123.91C398.814 123.498 402.913 123.341 407.009 123.441C407.863 123.441 408.74 123.441 409.63 123.562C416.832 124.265 423.987 125.381 431.061 126.903C432.408 127.18 433.754 127.492 435.076 127.817C441.867 129.548 447.697 131.711 447.697 131.711Z" fill="#407BFF"/>
    <path opacity="0.2" d="M440.725 151.424L430.16 163.155C430.16 163.155 428.237 184.202 433.97 195.044C434.367 191.438 434.848 187.387 435.449 183.024C436.326 176.678 437.468 169.694 439.055 162.41C439.848 158.612 440.749 154.729 441.759 150.811L440.725 151.424Z" fill="black"/>
    <path d="M432.792 102.49C430.388 109.173 427.047 121.59 431.158 126.951C428.688 128.832 425.843 130.161 422.816 130.849C419.788 131.538 416.649 131.569 413.608 130.942C407.695 129.884 408.043 125.701 409.726 123.609C417.707 122.972 418.392 117.239 417.888 111.674L432.792 102.49Z" fill="#FF8B7B"/>
    <path opacity="0.2" d="M426.71 106.252L417.887 111.673C418.021 112.971 418.041 114.278 417.948 115.579C420.953 115.579 425.496 113.019 426.277 109.99C426.644 108.78 426.79 107.514 426.71 106.252Z" fill="black"/>
    <path d="M416.673 73.7997C409.942 70.6745 406.889 93.2721 411.613 96.5295C416.337 99.7869 429.258 79.6174 416.673 73.7997Z" fill="#263238"/>
    <path d="M435.232 92.2495C433.201 101.493 432.48 107.01 427.023 111.061C418.813 117.167 407.959 111.061 407.177 101.445C406.48 92.7544 409.918 79.0996 419.63 76.8038C421.768 76.2892 424.002 76.3292 426.121 76.9202C428.239 77.5111 430.171 78.6334 431.734 80.1806C433.297 81.7277 434.438 83.6485 435.05 85.7607C435.663 87.8728 435.725 90.1064 435.232 92.2495Z" fill="#FF8B7B"/>
    <path d="M433.153 101.288C428.958 103.692 429.126 75.3009 437.324 79.4719C451.219 86.5276 443.069 95.5546 433.153 101.288Z" fill="#263238"/>
    <path d="M443.021 84.6167C439.211 88.1025 404.064 66.2622 419.077 62.7403C435.893 58.7617 450.329 77.8855 443.021 84.6167Z" fill="#263238"/>
    <path d="M435.725 84.9662C431.434 87.839 390.71 79.7736 400.627 67.9579C412.478 53.8224 444.62 79.0043 435.725 84.9662Z" fill="#263238"/>
    <path d="M437.841 103.2C436.272 104.989 434.06 106.086 431.686 106.253C428.537 106.445 427.624 103.476 429.054 100.844C430.328 98.4396 433.513 95.5308 436.41 96.5765C439.307 97.6222 439.74 100.976 437.841 103.2Z" fill="#FF8B7B"/>
    <path d="M343.339 398.807L358.749 403.615C358.749 403.615 374.303 347.265 379.604 318.033C381.214 309.138 384.652 296.854 388.775 283.74C393.968 267.224 400.242 249.411 405.326 235.491C410.687 220.815 414.702 210.454 414.702 210.454L381.563 205.285C381.563 205.285 354.65 282.357 351.188 311.265C347.594 341.328 343.339 398.807 343.339 398.807Z" fill="#407BFF"/>
    <path opacity="0.6" d="M343.339 398.807L358.749 403.615C358.749 403.615 374.303 347.265 379.604 318.033C381.214 309.138 384.652 296.854 388.775 283.74C393.968 267.224 400.242 249.411 405.326 235.491C410.687 220.815 414.702 210.454 414.702 210.454L381.563 205.285C381.563 205.285 354.65 282.357 351.188 311.265C347.594 341.328 343.339 398.807 343.339 398.807Z" fill="black"/>
    <path opacity="0.2" d="M388.775 283.765C393.968 267.249 400.242 249.435 405.327 235.516L402.502 227.775C393.403 236.887 388.583 267.105 388.775 283.765Z" fill="black"/>
    <path d="M399.437 208.098C399.437 208.098 396.107 289.762 397.766 317.648C399.581 348.191 418.2 412.053 418.2 412.053H435.665C435.665 412.053 428.165 354.069 425.208 324.379C421.842 290.567 431.987 213.17 431.987 213.17L399.437 208.098Z" fill="#407BFF"/>
    <path opacity="0.6" d="M399.437 208.098C399.437 208.098 396.107 289.762 397.766 317.648C399.581 348.191 418.2 412.053 418.2 412.053H435.665C435.665 412.053 428.165 354.069 425.208 324.379C421.842 290.567 431.987 213.17 431.987 213.17L399.437 208.098Z" fill="black"/>
    <path d="M416.084 412.426H436.65V406.284L413.656 405.875L416.084 412.426Z" fill="#407BFF"/>
    <path d="M341.284 398.568L359.65 404.326L361.514 398.388L341.08 391.645L341.284 398.568Z" fill="#407BFF"/>
    <path d="M420.7 92.6452C420.58 93.4025 420.087 93.9554 419.594 93.8472C419.101 93.7391 418.789 93.09 418.909 92.3327C419.029 91.5755 419.522 91.0225 420.015 91.1307C420.508 91.2389 420.784 91.888 420.7 92.6452Z" fill="#263238"/>
    <path d="M412.082 91.3115C411.961 92.0688 411.457 92.6217 410.964 92.5135C410.471 92.4053 410.158 91.7683 410.279 90.999C410.399 90.2297 410.892 89.6888 411.397 89.797C411.901 89.9052 412.19 90.5422 412.082 91.3115Z" fill="#263238"/>
    <path d="M414.75 92.1172C413.481 94.2947 411.92 96.2885 410.11 98.043C410.575 98.4872 411.13 98.8248 411.739 99.0324C412.347 99.24 412.993 99.3126 413.632 99.245L414.75 92.1172Z" fill="#FF5652"/>
    <path d="M416.517 101.83C416.183 101.821 415.849 101.789 415.519 101.734C415.49 101.731 415.461 101.722 415.435 101.707C415.409 101.693 415.386 101.673 415.368 101.65C415.35 101.626 415.337 101.599 415.33 101.57C415.323 101.541 415.322 101.511 415.327 101.481C415.339 101.424 415.371 101.373 415.417 101.338C415.464 101.302 415.521 101.285 415.58 101.289C416.522 101.465 417.493 101.412 418.411 101.136C419.328 100.86 420.167 100.369 420.856 99.7024C420.878 99.681 420.903 99.664 420.931 99.6524C420.959 99.6407 420.988 99.6348 421.019 99.6348C421.049 99.6348 421.079 99.6407 421.107 99.6524C421.134 99.664 421.16 99.681 421.181 99.7024C421.202 99.7226 421.219 99.7469 421.23 99.7738C421.242 99.8006 421.248 99.8295 421.248 99.8587C421.248 99.8879 421.242 99.9168 421.23 99.9436C421.219 99.9705 421.202 99.9948 421.181 100.015C420.568 100.619 419.838 101.091 419.036 101.404C418.234 101.716 417.377 101.861 416.517 101.83Z" fill="#263238"/>
    <path d="M423.753 90.2894C423.673 90.284 423.595 90.2593 423.526 90.2175C423.457 90.1757 423.399 90.1179 423.356 90.049C423.102 89.5435 422.733 89.1049 422.277 88.7687C421.822 88.4325 421.294 88.2082 420.736 88.1138C420.671 88.1179 420.605 88.1078 420.544 88.0844C420.483 88.0609 420.428 88.0247 420.382 87.978C420.336 87.9313 420.301 87.8753 420.279 87.8138C420.256 87.7523 420.247 87.6867 420.253 87.6215C420.258 87.5563 420.277 87.4929 420.309 87.4358C420.341 87.3786 420.384 87.3289 420.437 87.2901C420.49 87.2513 420.55 87.2243 420.614 87.2109C420.678 87.1975 420.744 87.198 420.808 87.2123C421.517 87.317 422.19 87.5899 422.771 88.0082C423.353 88.4264 423.825 88.9779 424.15 89.6163C424.206 89.7218 424.218 89.845 424.185 89.9596C424.151 90.0742 424.074 90.171 423.97 90.2293C423.903 90.2658 423.829 90.2863 423.753 90.2894Z" fill="#263238"/>
    <path d="M408.836 87.7774C408.746 87.7713 408.66 87.7423 408.584 87.6932C408.535 87.6596 408.494 87.6167 408.462 87.5669C408.43 87.5172 408.409 87.4616 408.399 87.4034C408.389 87.3452 408.39 87.2856 408.404 87.228C408.417 87.1705 408.441 87.1162 408.476 87.0682C408.874 86.4705 409.409 85.9758 410.036 85.6248C410.663 85.2737 411.364 85.0764 412.082 85.0488C412.203 85.0488 412.319 85.0969 412.405 85.1826C412.49 85.2683 412.539 85.3844 412.539 85.5056C412.539 85.6267 412.49 85.7429 412.405 85.8286C412.319 85.9142 412.203 85.9624 412.082 85.9624C411.514 85.9792 410.959 86.1362 410.466 86.4193C409.973 86.7024 409.558 87.1028 409.257 87.585C409.207 87.6483 409.143 87.6988 409.07 87.7322C408.997 87.7657 408.917 87.7812 408.836 87.7774Z" fill="#263238"/>
    <path d="M421.83 425.504C421.18 425.554 420.533 425.384 419.991 425.024C419.822 424.876 419.691 424.689 419.609 424.48C419.527 424.271 419.497 424.045 419.522 423.822C419.52 423.689 419.557 423.558 419.627 423.445C419.698 423.332 419.799 423.242 419.919 423.184C420.964 422.632 424.042 424.531 424.39 424.747C424.428 424.771 424.457 424.806 424.477 424.846C424.496 424.886 424.503 424.931 424.498 424.975C424.488 425.017 424.467 425.056 424.438 425.088C424.408 425.119 424.371 425.143 424.33 425.156C423.512 425.362 422.673 425.479 421.83 425.504ZM420.411 423.581C420.312 423.579 420.213 423.599 420.123 423.641C420.076 423.667 420.037 423.705 420.012 423.752C419.986 423.799 419.975 423.852 419.979 423.906C419.957 424.056 419.973 424.21 420.025 424.352C420.078 424.495 420.165 424.623 420.279 424.723C420.808 425.168 422.046 425.228 423.669 424.903C422.679 424.256 421.573 423.807 420.411 423.581Z" fill="#407BFF"/>
    <path d="M424.306 425.167C424.271 425.178 424.233 425.178 424.198 425.167C423.212 424.638 421.301 422.547 421.505 421.477C421.541 421.312 421.632 421.163 421.763 421.056C421.894 420.949 422.057 420.89 422.227 420.888C422.398 420.87 422.571 420.886 422.736 420.936C422.902 420.985 423.055 421.067 423.188 421.177C424.294 422.09 424.522 424.783 424.534 424.951C424.536 424.991 424.527 425.032 424.508 425.068C424.489 425.104 424.461 425.134 424.426 425.155C424.388 425.171 424.346 425.175 424.306 425.167ZM422.383 421.309H422.275C421.986 421.309 421.962 421.489 421.95 421.537C421.83 422.174 423.044 423.749 424.03 424.494C423.96 423.406 423.567 422.363 422.9 421.501C422.747 421.369 422.549 421.3 422.347 421.309H422.383Z" fill="#407BFF"/>
    <path d="M343.159 412.498C341.597 412.33 338.88 411.873 338.159 410.671C338.049 410.492 337.984 410.289 337.972 410.079C337.959 409.869 337.999 409.66 338.087 409.469C338.129 409.354 338.2 409.252 338.292 409.172C338.385 409.092 338.496 409.037 338.616 409.012C339.926 408.736 342.991 411.741 343.339 412.089C343.366 412.126 343.38 412.17 343.38 412.215C343.38 412.261 343.366 412.305 343.339 412.342C343.328 412.382 343.305 412.419 343.273 412.447C343.241 412.475 343.201 412.492 343.159 412.498ZM338.772 409.469H338.688C338.64 409.478 338.596 409.499 338.56 409.531C338.524 409.562 338.498 409.603 338.483 409.649C338.418 409.769 338.384 409.903 338.384 410.04C338.384 410.176 338.418 410.311 338.483 410.43C338.892 411.104 340.358 411.632 342.474 411.957C341.284 410.827 339.541 409.445 338.772 409.469Z" fill="#407BFF"/>
    <path d="M343.159 412.499C343.108 412.513 343.054 412.513 343.003 412.499C342.065 411.669 340.503 409.013 340.995 408.039C341.116 407.811 341.38 407.559 341.981 407.691C342.204 407.731 342.416 407.819 342.602 407.947C342.789 408.076 342.946 408.242 343.063 408.436C343.928 409.746 343.4 412.27 343.375 412.379C343.37 412.418 343.354 412.454 343.328 412.484C343.303 412.514 343.269 412.536 343.231 412.547L343.159 412.499ZM341.657 408.039C341.464 408.039 341.416 408.148 341.404 408.184C341.104 408.761 342.101 410.78 343.003 411.79C343.23 410.721 343.121 409.608 342.69 408.604C342.602 408.465 342.487 408.344 342.35 408.251C342.214 408.158 342.059 408.094 341.897 408.063L341.657 408.039Z" fill="#407BFF"/>
    <path d="M452.745 142.925C452.565 144.584 452.385 146.014 452.132 147.541C451.88 149.068 451.64 150.534 451.363 152.024C450.846 155.005 450.161 157.95 449.416 160.907C447.902 166.898 445.891 172.751 443.406 178.408L442.408 180.56L441.314 182.699L441.038 183.24L440.906 183.505L440.689 183.889C440.261 184.66 439.745 185.378 439.151 186.029C437.709 187.596 435.791 188.644 433.694 189.01C432.088 189.269 430.445 189.162 428.886 188.697C427.785 188.368 426.721 187.925 425.713 187.375C424.114 186.484 422.615 185.424 421.241 184.214C420.009 183.155 418.841 182.023 417.743 180.824C416.649 179.622 415.64 178.492 414.678 177.278C412.749 174.89 410.986 172.372 409.401 169.742L414.931 165.186C419.042 168.789 423.404 172.095 427.984 175.079C428.915 175.643 429.897 176.118 430.917 176.497C431.202 176.619 431.509 176.684 431.819 176.689C431.963 176.689 431.819 176.545 431.29 176.593C430.63 176.687 430.016 176.986 429.535 177.447C429.355 177.627 429.27 177.747 429.222 177.783V177.675L429.306 177.447L429.499 176.99L430.244 175.175L430.929 173.312C432.745 168.158 434.219 162.89 435.341 157.542C435.954 154.825 436.543 152.097 437.011 149.356C437.48 146.615 437.961 143.779 438.358 141.23L452.745 142.925Z" fill="#FF8B7B"/>
    <path d="M454.608 137.265C459.789 144.765 451.7 170.416 451.7 170.416L428.862 164.971C429.99 157.038 431.841 149.225 434.391 141.628C438.73 129.524 448.346 128.178 454.608 137.265Z" fill="#407BFF"/>
    <path d="M415.628 165.813L410.014 157.939L403.932 168.493C403.932 168.493 410.207 174.154 413.548 171.173L415.628 165.813Z" fill="#FF8B7B"/>
    <path d="M402.394 155.596L397.778 164.563L403.944 168.469L410.014 157.916L402.394 155.596Z" fill="#FF8B7B"/>
    <path d="M377.789 160.006L383.715 152.35L389.352 163.168C389.352 163.168 382.861 168.553 379.616 165.439L377.789 160.006Z" fill="#FF8B7B"/>
    <path d="M391.431 150.354L395.674 159.501L389.352 163.155L383.715 152.349L391.431 150.354Z" fill="#FF8B7B"/>
    <path d="M171.646 93.0312C169.578 89.1247 170.852 82.4897 181.971 82.3935C193.089 82.2973 205.65 82.8142 203.727 72.6934C213.343 74.292 219.954 82.8983 215.314 88.5598C207.874 97.6108 213.09 104.017 207.85 107.503C200.554 112.383 198.234 136.351 182.235 130.449C183.726 121.579 158.724 101.109 171.646 93.0312Z" fill="#263238"/>
    <path d="M223.356 153.131C223.62 156.004 223.969 159.141 224.401 162.134C224.834 165.127 225.267 168.144 225.868 171.173C226.962 177.104 228.497 182.946 230.459 188.65L231.241 190.717L231.601 191.655C231.601 191.715 231.601 191.655 231.517 191.655C231.277 191.429 230.968 191.29 230.64 191.258C230.471 191.258 230.712 191.342 231.084 191.258C232.198 190.965 233.263 190.511 234.246 189.912C235.496 189.221 236.7 188.45 237.852 187.604C240.316 185.841 242.687 183.951 244.956 181.943C247.275 179.935 249.607 177.82 251.831 175.728L255.822 179.094C252.07 184.479 247.759 189.45 242.96 193.927C241.67 195.098 240.314 196.194 238.897 197.208C237.263 198.392 235.46 199.323 233.549 199.973C232.185 200.416 230.743 200.564 229.318 200.406C228.376 200.294 227.463 200.009 226.625 199.564C225.774 199.113 225.012 198.51 224.377 197.785C223.837 197.173 223.384 196.49 223.031 195.754C222.963 195.638 222.903 195.517 222.851 195.393L222.719 195.105L222.454 194.528L221.42 192.22C218.908 186.098 216.968 179.756 215.627 173.276C214.942 170.079 214.329 166.882 213.884 163.66C213.439 160.439 213.042 157.254 212.838 153.828L223.356 153.131Z" fill="#FFC3BD"/>
    <path d="M219.365 141.183C222.971 142.12 225.062 166.196 225.062 166.196L215.374 172.026C215.374 172.026 209.521 154.237 210.41 146.556C211.059 140.966 216.624 140.486 219.365 141.183Z" fill="#FFC3BD"/>
    <path d="M251.711 175.008L257.276 166.209L260.437 176.198C260.437 176.198 255.87 181.006 251.735 179.804L251.711 175.008Z" fill="#FFC3BD"/>
    <path d="M265.45 163.289L267.637 171.811L260.437 176.199L257.276 166.21L265.45 163.289Z" fill="#FFC3BD"/>
    <path d="M198.667 424.207H208.98L213.355 386.332H199.207L198.667 424.207Z" fill="#FFC3BD"/>
    <path d="M133.903 410.287L143.891 412.871L159.229 378.11L145.406 374.203L133.903 410.287Z" fill="#FFC3BD"/>
    <path d="M145.442 411.213L134.78 406.682C134.598 406.598 134.392 406.584 134.201 406.644C134.01 406.704 133.848 406.834 133.747 407.006L128.939 414.928C128.826 415.131 128.757 415.356 128.737 415.588C128.717 415.82 128.746 416.053 128.822 416.273C128.898 416.493 129.019 416.694 129.178 416.864C129.337 417.034 129.53 417.169 129.744 417.26C133.494 418.774 135.381 419.315 140.069 421.31C142.954 422.512 147.041 424.628 151.019 426.323C154.998 428.017 156.897 424.159 155.383 423.101C148.627 418.293 148.387 415.637 146.776 412.464C146.491 411.904 146.019 411.462 145.442 411.213Z" fill="#263238"/>
    <path d="M209.328 423.004H197.741C197.542 423.002 197.349 423.073 197.198 423.204C197.048 423.334 196.95 423.516 196.924 423.713L195.601 432.884C195.578 433.116 195.603 433.35 195.676 433.571C195.749 433.792 195.867 433.995 196.023 434.168C196.18 434.34 196.371 434.477 196.584 434.571C196.797 434.665 197.027 434.713 197.26 434.711C201.299 434.639 203.27 434.411 208.343 434.411C211.468 434.411 217.959 434.735 222.286 434.735C226.613 434.735 226.841 430.456 225.038 430.06C216.961 428.329 213.776 425.925 211.059 423.641C210.574 423.233 209.962 423.008 209.328 423.004Z" fill="#263238"/>
    <path d="M219.966 141.171C219.966 141.171 224.87 142.902 215.038 203.411H173.196C173.905 186.366 173.917 175.861 165.78 140.907C171.639 139.675 177.581 138.871 183.557 138.503C189.888 138.051 196.242 138.051 202.573 138.503C210.747 139.272 219.966 141.171 219.966 141.171Z" fill="#263238"/>
    <path d="M185.445 117.07C186.647 123.188 187.849 134.403 183.557 138.478C188.907 144.155 195.137 148.933 202.008 152.625C207.946 143.009 202.573 138.478 202.573 138.478C195.758 136.855 195.926 131.795 197.116 127.035L185.445 117.07Z" fill="#FFC3BD"/>
    <path d="M185.925 133.333C189.529 133.642 193.155 133.569 196.743 133.117C196.778 133.112 196.814 133.118 196.844 133.136C196.875 133.153 196.898 133.181 196.912 133.213C197.02 133.49 197.308 134.247 197.537 134.764C197.554 134.797 197.557 134.836 197.546 134.872C197.534 134.908 197.51 134.938 197.476 134.956C196.274 135.569 190.325 136.35 185.456 135.437C185.434 135.433 185.413 135.424 185.395 135.411C185.376 135.398 185.361 135.382 185.349 135.362C185.338 135.343 185.331 135.321 185.329 135.299C185.326 135.276 185.329 135.254 185.336 135.232C185.529 134.511 185.733 133.742 185.805 133.454C185.808 133.423 185.821 133.394 185.843 133.372C185.865 133.35 185.894 133.336 185.925 133.333Z" fill="#407BFF"/>
    <path opacity="0.2" d="M190.205 121.182L197.116 127.083C196.822 128.186 196.625 129.312 196.527 130.449C193.919 130.076 190.337 127.216 190.06 124.439C189.919 123.353 189.968 122.251 190.205 121.182Z" fill="black"/>
    <path d="M178.99 105.893C181.394 115.845 182.187 120.1 188.185 124.367C197.2 130.774 208.896 125.653 209.521 115.196C210.085 105.772 206.059 91.0839 195.505 88.8241C193.18 88.3141 190.764 88.4072 188.485 89.0946C186.206 89.7819 184.141 91.0407 182.486 92.7512C180.831 94.4617 179.641 96.567 179.029 98.8672C178.417 101.167 178.404 103.586 178.99 105.893Z" fill="#FFC3BD"/>
    <path d="M215.086 203.41C215.086 203.41 223.211 282.85 222.538 314.295C221.841 347.013 215.326 387.46 215.326 387.46H197.344C197.344 387.46 198.114 348.924 196.876 316.795C195.541 281.769 184.411 203.41 184.411 203.41H215.086Z" fill="#407BFF"/>
    <path d="M195.806 389.252H216.084L217.562 384.035L194.856 383.398L195.806 389.252Z" fill="#263238"/>
    <path opacity="0.2" d="M197.02 223.183C207.297 243.87 199.075 281.624 195.445 295.664C193.582 274.569 190.433 248.786 187.981 229.854C189.543 219.144 192.32 213.639 197.02 223.183Z" fill="black"/>
    <path d="M204.016 203.41C204.016 203.41 194.532 286 187.368 312.516C178.858 343.984 161.477 378.746 161.477 378.746L143.447 373.661C143.447 373.661 153.556 331.231 160.058 314.643C173.942 279.256 162.054 226.513 173.148 203.41H204.016Z" fill="#407BFF"/>
    <path d="M142.377 376.402L161.068 381.582L164.434 376.786L143.699 369.875L142.377 376.402Z" fill="#263238"/>
    <path d="M195.794 106.097C195.938 106.914 196.491 107.503 196.996 107.407C197.501 107.311 197.849 106.566 197.705 105.748C197.561 104.931 197.008 104.342 196.503 104.438C195.998 104.534 195.65 105.279 195.794 106.097Z" fill="#263238"/>
    <path d="M205.049 104.45C205.205 105.267 205.746 105.856 206.251 105.76C206.756 105.664 207.105 104.931 206.96 104.113C206.816 103.296 206.263 102.707 205.758 102.803C205.253 102.899 204.905 103.633 205.049 104.45Z" fill="#263238"/>
    <path d="M205.542 102.888L207.417 101.975C207.417 101.975 206.66 103.681 205.542 102.888Z" fill="#263238"/>
    <path d="M202.429 106.254C203.49 107.992 204.784 109.578 206.275 110.966C205.909 111.336 205.466 111.622 204.979 111.804C204.491 111.987 203.97 112.062 203.45 112.024L202.429 106.254Z" fill="#ED847E"/>
    <path d="M199.123 115.869C199.591 115.869 200.057 115.828 200.518 115.749C200.549 115.743 200.58 115.731 200.607 115.714C200.634 115.696 200.657 115.673 200.675 115.646C200.693 115.619 200.705 115.589 200.711 115.557C200.717 115.525 200.717 115.492 200.71 115.461C200.706 115.429 200.695 115.399 200.678 115.372C200.662 115.345 200.64 115.322 200.614 115.304C200.588 115.286 200.559 115.273 200.527 115.267C200.496 115.261 200.464 115.261 200.433 115.268C199.417 115.472 198.368 115.433 197.37 115.155C196.372 114.877 195.453 114.368 194.688 113.67C194.667 113.646 194.64 113.628 194.612 113.615C194.583 113.602 194.551 113.596 194.52 113.596C194.488 113.596 194.457 113.602 194.428 113.615C194.399 113.628 194.373 113.646 194.351 113.67C194.307 113.717 194.281 113.779 194.281 113.844C194.281 113.909 194.307 113.971 194.351 114.018C195.643 115.229 197.353 115.892 199.123 115.869Z" fill="#263238"/>
    <path d="M175.648 91.625C181.562 94.5338 187.464 93.2717 187.764 100.616C188.065 107.96 177.956 119.848 175.648 111.434C173.34 103.02 175.648 91.625 175.648 91.625Z" fill="#263238"/>
    <path d="M177.415 95.4343C185.048 98.5235 206.071 99.3288 205.614 89.9051C205.157 80.4815 186.983 84.6524 181.778 86.6718C176.574 88.6911 177.415 95.4343 177.415 95.4343Z" fill="#263238"/>
    <path d="M178.569 113.393C178.946 114.298 179.498 115.119 180.194 115.81C180.889 116.501 181.713 117.048 182.62 117.42C185.024 118.405 186.55 116.29 186.118 113.814C185.721 111.614 183.99 108.441 181.43 108.513C180.866 108.534 180.317 108.696 179.833 108.986C179.349 109.275 178.946 109.682 178.661 110.168C178.376 110.655 178.218 111.205 178.202 111.769C178.186 112.333 178.312 112.891 178.569 113.393Z" fill="#FFC3BD"/>
    <path d="M192.212 100.615C192.278 100.617 192.343 100.603 192.404 100.576C192.464 100.549 192.517 100.509 192.56 100.459C192.972 100.005 193.485 99.6537 194.056 99.4325C194.628 99.2113 195.244 99.1265 195.854 99.1848C195.981 99.2065 196.111 99.1787 196.219 99.1072C196.326 99.0357 196.402 98.9258 196.431 98.8002C196.452 98.6714 196.423 98.5393 196.349 98.4317C196.275 98.3242 196.162 98.2494 196.034 98.2232C195.263 98.132 194.481 98.2262 193.753 98.498C193.026 98.7698 192.374 99.2113 191.851 99.7858C191.761 99.8797 191.711 100.005 191.711 100.134C191.711 100.264 191.761 100.389 191.851 100.483C191.95 100.572 192.079 100.619 192.212 100.615Z" fill="#263238"/>
    <path d="M207.369 99.3542C207.431 99.3562 207.493 99.3455 207.551 99.3228C207.609 99.3001 207.662 99.2658 207.706 99.222C207.751 99.1772 207.787 99.1239 207.812 99.0651C207.836 99.0063 207.849 98.9432 207.849 98.8794C207.849 98.8157 207.836 98.7525 207.812 98.6937C207.787 98.6349 207.751 98.5816 207.706 98.5368C207.186 97.9597 206.533 97.5171 205.805 97.247C205.076 96.977 204.293 96.8875 203.523 96.9863C203.46 96.9978 203.401 97.0216 203.347 97.0563C203.294 97.091 203.248 97.1359 203.213 97.1885C203.177 97.241 203.152 97.3001 203.139 97.3624C203.126 97.4246 203.126 97.4888 203.138 97.5512C203.162 97.6781 203.234 97.7908 203.339 97.865C203.445 97.9391 203.576 97.9689 203.703 97.9479C204.308 97.8758 204.921 97.9471 205.493 98.1559C206.065 98.3647 206.58 98.7052 206.996 99.1499C207.04 99.209 207.096 99.2579 207.16 99.2932C207.225 99.3284 207.296 99.3493 207.369 99.3542Z" fill="#263238"/>
    <path d="M171.008 155.884C168.929 161.317 166.934 167.027 165.167 172.64C163.403 178.178 162.033 183.833 161.068 189.564C160.936 190.261 160.876 190.947 160.803 191.632L160.695 192.653V193.086C160.815 193.884 161.106 194.647 161.549 195.322C162.972 197.64 164.627 199.806 166.489 201.789C170.347 206.104 174.795 210.203 179.182 214.265L176.141 218.52C170.689 215.372 165.542 211.722 160.767 207.618C158.18 205.435 155.863 202.949 153.868 200.214C152.523 198.4 151.633 196.289 151.272 194.06C151.221 193.661 151.196 193.26 151.199 192.858C151.199 192.605 151.199 192.593 151.199 192.461V192.149V190.947C151.199 190.105 151.272 189.264 151.368 188.458C152.052 182.111 153.311 175.839 155.13 169.719C156.821 163.677 158.859 157.737 161.236 151.93L171.008 155.884Z" fill="#FFC3BD"/>
    <path d="M165.876 140.87C161.765 142.553 156.621 165.042 156.621 165.042L165.359 172.254C165.359 172.254 173.593 155.426 173.953 147.758C174.17 141.904 169.482 139.392 165.876 140.87Z" fill="#FFC3BD"/>
    <path d="M150.178 414.457C150.366 414.36 150.53 414.222 150.659 414.054C150.788 413.885 150.878 413.691 150.923 413.484C150.969 413.344 150.977 413.194 150.945 413.05C150.914 412.906 150.844 412.774 150.743 412.666C149.853 411.693 146.175 412.33 145.754 412.402C145.709 412.415 145.667 412.439 145.633 412.473C145.599 412.507 145.575 412.548 145.562 412.594C145.551 412.641 145.554 412.69 145.571 412.735C145.589 412.78 145.619 412.819 145.658 412.847C146.764 413.652 148.808 414.95 150.034 414.518C150.084 414.505 150.133 414.485 150.178 414.457ZM146.428 412.763C147.906 412.558 149.913 412.462 150.382 412.967C150.417 413.023 150.436 413.087 150.436 413.153C150.436 413.219 150.417 413.284 150.382 413.34C150.356 413.495 150.29 413.64 150.191 413.762C150.092 413.884 149.963 413.979 149.817 414.037C149.204 414.289 147.942 413.82 146.428 412.763Z" fill="#407BFF"/>
    <path d="M147.473 412.331C148.543 411.814 149.637 411.021 149.793 410.288C149.832 410.097 149.804 409.899 149.714 409.726C149.624 409.554 149.478 409.417 149.3 409.338C149.138 409.244 148.958 409.185 148.771 409.167C148.585 409.148 148.396 409.17 148.219 409.23C146.812 409.711 145.622 412.439 145.574 412.548C145.553 412.584 145.542 412.626 145.542 412.668C145.542 412.71 145.553 412.751 145.574 412.788C145.597 412.823 145.63 412.851 145.668 412.868C145.706 412.885 145.749 412.891 145.791 412.884C146.377 412.788 146.945 412.602 147.473 412.331ZM148.231 409.759L148.375 409.699C148.486 409.658 148.606 409.642 148.724 409.652C148.843 409.663 148.957 409.699 149.06 409.759C149.324 409.915 149.336 410.071 149.312 410.18C149.168 410.889 147.437 411.971 146.223 412.307C146.657 411.297 147.35 410.418 148.231 409.759Z" fill="#407BFF"/>
    <path d="M213.199 424.783C214.084 424.865 214.971 424.64 215.711 424.146C215.877 423.997 216.003 423.81 216.079 423.6C216.155 423.39 216.177 423.165 216.144 422.944C216.137 422.808 216.096 422.677 216.024 422.561C215.953 422.445 215.853 422.35 215.735 422.283C214.533 421.598 210.362 423.701 209.893 423.942C209.847 423.964 209.81 424.001 209.786 424.046C209.762 424.092 209.753 424.144 209.761 424.194C209.769 424.243 209.792 424.289 209.826 424.326C209.86 424.362 209.905 424.387 209.953 424.399C211.021 424.624 212.108 424.753 213.199 424.783ZM215.038 422.656C215.195 422.646 215.351 422.675 215.495 422.74C215.544 422.764 215.586 422.802 215.616 422.848C215.646 422.895 215.662 422.949 215.663 423.004C215.686 423.148 215.671 423.296 215.62 423.432C215.57 423.569 215.485 423.691 215.374 423.786C214.749 424.35 213.055 424.447 210.771 424.074C212.103 423.369 213.546 422.898 215.038 422.68V422.656Z" fill="#407BFF"/>
    <path d="M210.001 424.447H210.109C211.311 423.894 213.715 421.67 213.571 420.504C213.571 420.228 213.331 419.879 212.658 419.807C212.417 419.784 212.173 419.81 211.942 419.882C211.711 419.954 211.497 420.072 211.311 420.227C210.013 421.309 209.773 424.086 209.761 424.206C209.759 424.248 209.768 424.29 209.787 424.328C209.806 424.366 209.834 424.398 209.869 424.422C209.908 424.447 209.956 424.456 210.001 424.447ZM212.405 420.264H212.55C212.994 420.264 213.03 420.48 213.03 420.54C213.151 421.249 211.504 422.944 210.242 423.749C210.341 422.58 210.804 421.47 211.564 420.576C211.685 420.465 211.827 420.38 211.982 420.327C212.137 420.273 212.302 420.251 212.465 420.264H212.405Z" fill="#407BFF"/>
    <path d="M172.571 200.958L171.501 204.709C171.357 204.997 171.694 205.286 172.187 205.286H215.29C215.663 205.286 215.975 205.105 215.999 204.865L216.384 201.115C216.384 200.862 216.084 200.646 215.663 200.646H173.256C173.125 200.634 172.992 200.656 172.872 200.711C172.752 200.766 172.648 200.851 172.571 200.958Z" fill="#407BFF"/>
    <path opacity="0.8" d="M172.571 200.958L171.501 204.709C171.357 204.997 171.694 205.286 172.187 205.286H215.29C215.663 205.286 215.975 205.105 215.999 204.865L216.384 201.115C216.384 200.862 216.084 200.646 215.663 200.646H173.256C173.125 200.634 172.992 200.656 172.872 200.711C172.752 200.766 172.648 200.851 172.571 200.958Z" fill="white"/>
    <path d="M178.269 205.696H177.127C176.91 205.696 176.73 205.587 176.754 205.443L177.283 200.563C177.283 200.431 177.499 200.311 177.716 200.311H178.918C179.146 200.311 179.314 200.431 179.302 200.563L178.773 205.443C178.689 205.587 178.497 205.696 178.269 205.696Z" fill="#407BFF"/>
    <path d="M212.093 205.696H210.963C210.734 205.696 210.566 205.587 210.578 205.443L211.107 200.563C211.107 200.431 211.323 200.311 211.552 200.311H212.682C212.91 200.311 213.078 200.431 213.066 200.563L212.538 205.443C212.525 205.587 212.321 205.696 212.093 205.696Z" fill="#407BFF"/>
    <path d="M195.181 205.696H194.051C193.822 205.696 193.642 205.587 193.666 205.443L194.195 200.563C194.195 200.431 194.411 200.311 194.64 200.311H195.77C195.998 200.311 196.166 200.431 196.154 200.563L195.625 205.443C195.601 205.587 195.409 205.696 195.181 205.696Z" fill="#407BFF"/>
    <path d="M177.968 213.363L189.075 214.313L181.658 221.717C181.658 221.717 175.3 219.878 174.446 215.707L177.968 213.363Z" fill="#FFC3BD"/>
    <path d="M252.781 161.546L245.569 196.043C245.475 196.488 245.471 196.948 245.555 197.395C245.639 197.841 245.81 198.267 246.059 198.648C246.308 199.029 246.63 199.357 247.006 199.613C247.381 199.869 247.804 200.049 248.249 200.142L313.926 213.917C314.828 214.099 315.765 213.918 316.534 213.414C317.304 212.91 317.843 212.124 318.037 211.225L325.249 176.727C325.431 175.827 325.252 174.892 324.751 174.123C324.249 173.354 323.466 172.813 322.569 172.616L256.891 158.853C256.033 158.682 255.142 158.836 254.391 159.286C253.981 159.531 253.626 159.858 253.349 160.247C253.071 160.636 252.878 161.078 252.781 161.546Z" fill="#407BFF"/>
    <path opacity="0.5" d="M252.781 161.546L245.569 196.043C245.475 196.488 245.471 196.948 245.555 197.395C245.639 197.841 245.81 198.267 246.059 198.648C246.308 199.029 246.63 199.357 247.006 199.613C247.381 199.869 247.804 200.049 248.249 200.142L313.926 213.917C314.828 214.099 315.765 213.918 316.534 213.414C317.304 212.91 317.843 212.124 318.037 211.225L325.249 176.727C325.431 175.827 325.252 174.892 324.751 174.123C324.249 173.354 323.466 172.813 322.569 172.616L256.891 158.853C256.033 158.682 255.142 158.836 254.391 159.286C253.981 159.531 253.626 159.858 253.349 160.247C253.071 160.636 252.878 161.078 252.781 161.546Z" fill="black"/>
    <path d="M324.684 174.058L314.311 179.335L293.733 189.78C290.867 191.244 287.587 191.685 284.437 191.029C281.287 190.373 278.455 188.66 276.412 186.174L262.168 168.757L254.379 159.273C255.136 158.828 256.029 158.674 256.891 158.841L262.625 160.043L314.744 170.969L322.557 172.604C323.425 172.801 324.185 173.321 324.684 174.058Z" fill="#407BFF"/>
    <path d="M316.799 132.084L314.744 171.017L314.311 179.335L293.733 189.78C290.867 191.244 287.587 191.684 284.437 191.029C281.287 190.373 278.455 188.66 276.412 186.174L262.168 168.757L262.625 160.043L264.248 129.271C264.297 128.437 264.673 127.656 265.294 127.096C265.914 126.536 266.73 126.242 267.565 126.278L313.806 128.682C314.227 128.705 314.64 128.812 315.019 128.996C315.399 129.18 315.738 129.438 316.017 129.755C316.295 130.072 316.508 130.441 316.643 130.841C316.777 131.241 316.83 131.663 316.799 132.084Z" fill="#407BFF"/>
    <path opacity="0.9" d="M316.799 132.084L314.744 171.017L314.311 179.335L293.733 189.78C290.867 191.244 287.587 191.684 284.437 191.029C281.287 190.373 278.455 188.66 276.412 186.174L262.168 168.757L262.625 160.043L264.248 129.271C264.297 128.437 264.673 127.656 265.294 127.096C265.914 126.536 266.73 126.242 267.565 126.278L313.806 128.682C314.227 128.705 314.64 128.812 315.019 128.996C315.399 129.18 315.738 129.438 316.017 129.755C316.295 130.072 316.508 130.441 316.643 130.841C316.777 131.241 316.83 131.663 316.799 132.084Z" fill="white"/>
    <path opacity="0.1" d="M278.864 181.365L262.361 165.15L262.168 168.756L276.46 186.149C278.503 188.635 281.335 190.348 284.485 191.004C287.635 191.66 290.915 191.219 293.781 189.755L314.359 179.31L314.563 175.415L293.817 184.166C291.327 185.234 288.577 185.537 285.915 185.039C283.252 184.54 280.798 183.261 278.864 181.365Z" fill="black"/>
    <path d="M269.248 141.014L269.753 131.482L271.676 131.591L271.171 141.11L269.248 141.014Z" fill="#407BFF"/>
    <path d="M273.022 141.219L273.527 131.688L275.402 131.784L279.008 138.359L279.333 131.988L281.124 132.084L280.619 141.616L278.696 141.52L275.138 135.101L274.813 141.316L273.022 141.219Z" fill="#407BFF"/>
    <path d="M285.054 141.857L282.146 132.145L284.237 132.253L286.28 139.465L288.985 132.541L291.028 132.649L287.11 142.001L285.054 141.857Z" fill="#407BFF"/>
    <path d="M291.449 142.194L291.954 132.662L293.877 132.758L293.372 142.29L291.449 142.194Z" fill="#407BFF"/>
    <path d="M297.351 142.506L297.771 134.585L294.947 134.429L295.031 132.818L302.604 133.215L302.519 134.826L299.695 134.681L299.274 142.603L297.351 142.506Z" fill="#407BFF"/>
    <path d="M303.337 142.819L303.842 133.287L310.909 133.66L310.825 135.27L305.681 134.994L305.572 137.109L310.38 137.362L310.296 138.973L305.488 138.72L305.356 141.316L310.681 141.593L310.597 143.204L303.337 142.819Z" fill="#407BFF"/>
    <path d="M195.421 220.214L188.87 226.08L180.072 221.128L189.075 214.312L195.421 220.214Z" fill="#FFC3BD"/>
    <path d="M196.274 104.523L198.138 103.609C198.138 103.609 197.404 105.328 196.274 104.523Z" fill="#263238"/>
</svg>
